<svg width="64" height="64" viewBox="0 0 64 64" fill="none" xmlns="http://www.w3.org/2000/svg" role="img" aria-label="Sample Studio">
  <rect width="64" height="64" rx="14" fill="#0f1417"/>
  <rect x="0.5" y="0.5" width="63" height="63" rx="13.5" stroke="#14b8a6" stroke-opacity="0.45"/>
  <path d="M40.6 22.1c-2.5-2.3-6-3.4-9.2-3.4-5.6 0-9.6 3-9.6 7.6 0 4 2.8 6 8.2 7.4 4.6 1.2 6 2 6 3.8 0 1.9-1.9 3-5 3-3.3 0-6.2-1.4-8.4-3.6l-2.4 4.2c2.7 2.6 6.7 4 10.7 4 6 0 10.2-3 10.2-7.9 0-4.2-2.9-6.2-8.6-7.6-4.3-1.1-5.6-1.8-5.6-3.5 0-1.7 1.7-2.8 4.5-2.8 2.8 0 5.5 1.1 7.3 2.9l1.9-4.5z" fill="#2dd4bf"/>
</svg>
